<svg width="300" height="300" viewBox="0 0 300 300" fill="none" xmlns="http://www.w3.org/2000/svg">
<path d="M64.4986 136.244L67.8106 135.704V109.496L64.4986 108.992V108.2H75.4786C78.0706 108.2 80.1346 108.44 81.6706 108.92C83.2066 109.4 84.3226 110.132 85.0186 111.116C85.7146 112.076 86.0626 113.348 86.0626 114.932C86.0626 118.388 83.8786 120.596 79.5106 121.556V121.736C82.1746 122.096 84.2386 122.888 85.7026 124.112C87.1906 125.336 87.9346 127.04 87.9346 129.224C87.9346 131.864 86.9626 133.82 85.0186 135.092C83.0986 136.364 80.4946 137 77.2066 137H64.4986V136.244ZM75.7666 121.448C77.6866 121.448 79.1626 120.908 80.1946 119.828C81.2266 118.748 81.7426 117.212 81.7426 115.22V115.004C81.7426 111.068 79.6546 109.1 75.4786 109.1H71.7706V121.448H75.7666ZM77.2066 136.136C79.2466 136.136 80.8306 135.548 81.9586 134.372C83.0866 133.172 83.6506 131.468 83.6506 129.26V128.864C83.6506 126.68 83.0866 125.048 81.9586 123.968C80.8546 122.888 79.2706 122.348 77.2066 122.348H71.7706V136.136H77.2066ZM94.7068 114.176C94.0348 114.176 93.4588 113.948 92.9788 113.492C92.4988 113.012 92.2588 112.436 92.2588 111.764C92.2588 111.092 92.4868 110.528 92.9428 110.072C93.4228 109.616 94.0108 109.388 94.7068 109.388C95.3548 109.388 95.9068 109.616 96.3628 110.072C96.8188 110.528 97.0468 111.092 97.0468 111.764C97.0468 112.436 96.8188 113.012 96.3628 113.492C95.9068 113.948 95.3548 114.176 94.7068 114.176ZM90.8908 137V136.28L93.4108 135.92V119.468L90.8908 119.108V118.388H97.0108V135.92L99.5308 136.28V137H90.8908ZM113.213 137.36C111.797 137.36 110.573 137 109.541 136.28C108.533 135.536 107.729 134.528 107.129 133.256V137H101.009V136.28L103.529 135.92V109.28L101.009 108.92V108.2H107.129V122.132C107.729 120.86 108.533 119.864 109.541 119.144C110.573 118.4 111.797 118.028 113.213 118.028C114.917 118.028 116.417 118.424 117.713 119.216C119.009 120.008 120.017 121.136 120.737 122.6C121.457 124.04 121.817 125.732 121.817 127.676C121.817 129.62 121.457 131.324 120.737 132.788C120.017 134.228 119.009 135.356 117.713 136.172C116.417 136.964 114.917 137.36 113.213 137.36ZM112.853 136.46C116.189 136.46 117.857 134.132 117.857 129.476V125.876C117.857 121.244 116.189 118.928 112.853 118.928C111.797 118.928 110.837 119.24 109.973 119.864C109.109 120.464 108.425 121.28 107.921 122.312C107.417 123.32 107.153 124.424 107.129 125.624V129.476C107.129 130.7 107.369 131.852 107.849 132.932C108.353 134.012 109.037 134.876 109.901 135.524C110.789 136.148 111.773 136.46 112.853 136.46ZM124.072 137V136.28L126.772 135.92V109.28L124.072 108.92V108.2H130.372V135.92L132.892 136.28V137H124.072ZM138.476 114.176C137.804 114.176 137.228 113.948 136.748 113.492C136.268 113.012 136.028 112.436 136.028 111.764C136.028 111.092 136.256 110.528 136.712 110.072C137.192 109.616 137.78 109.388 138.476 109.388C139.124 109.388 139.676 109.616 140.132 110.072C140.588 110.528 140.816 111.092 140.816 111.764C140.816 112.436 140.588 113.012 140.132 113.492C139.676 113.948 139.124 114.176 138.476 114.176ZM134.66 137V136.28L137.18 135.92V119.468L134.66 119.108V118.388H140.78V135.92L143.3 136.28V137H134.66ZM154.931 137.36C153.203 137.36 151.631 136.964 150.215 136.172C148.799 135.356 147.671 134.216 146.831 132.752C146.015 131.264 145.607 129.572 145.607 127.676C145.607 125.78 146.015 124.1 146.831 122.636C147.671 121.172 148.799 120.044 150.215 119.252C151.631 118.436 153.203 118.028 154.931 118.028C156.659 118.028 158.231 118.436 159.647 119.252C161.063 120.044 162.179 121.172 162.995 122.636C163.835 124.1 164.255 125.78 164.255 127.676C164.255 129.572 163.835 131.264 162.995 132.752C162.179 134.216 161.063 135.356 159.647 136.172C158.231 136.964 156.659 137.36 154.931 137.36ZM154.931 136.568C156.707 136.568 158.039 135.92 158.927 134.624C159.839 133.328 160.295 131.612 160.295 129.476V125.876C160.295 123.74 159.839 122.036 158.927 120.764C158.039 119.468 156.707 118.82 154.931 118.82C153.155 118.82 151.811 119.468 150.899 120.764C150.011 122.036 149.567 123.74 149.567 125.876V129.476C149.567 131.612 150.011 133.328 150.899 134.624C151.811 135.92 153.155 136.568 154.931 136.568ZM174.209 137.36C172.625 137.36 171.353 136.964 170.393 136.172C169.457 135.38 168.989 134.12 168.989 132.392V119.432L166.433 119.072V118.352H168.989V115.364L172.589 114.464V118.352H177.269V119.072L172.589 119.432V132.32C172.589 134.864 173.501 136.136 175.325 136.136C175.709 136.136 176.069 136.076 176.405 135.956C176.765 135.836 177.041 135.716 177.233 135.596C177.449 135.476 177.581 135.392 177.629 135.344L178.097 135.92C177.017 136.88 175.721 137.36 174.209 137.36ZM188.228 137.36C186.452 137.36 184.844 136.964 183.404 136.172C181.964 135.356 180.824 134.216 179.984 132.752C179.144 131.288 178.724 129.596 178.724 127.676C178.724 125.756 179.132 124.076 179.948 122.636C180.788 121.172 181.904 120.044 183.296 119.252C184.712 118.436 186.284 118.028 188.012 118.028C189.524 118.028 190.88 118.364 192.08 119.036C193.28 119.708 194.216 120.644 194.888 121.844C195.56 123.02 195.908 124.376 195.932 125.912H182.684V129.476C182.684 131.588 183.152 133.304 184.088 134.624C185.048 135.92 186.428 136.568 188.228 136.568C189.884 136.568 191.348 136.1 192.62 135.164C193.892 134.228 194.672 133.016 194.96 131.528H195.788C195.452 133.304 194.6 134.72 193.232 135.776C191.864 136.832 190.196 137.36 188.228 137.36ZM191.972 125.012C191.972 122.924 191.648 121.376 191 120.368C190.352 119.336 189.344 118.82 187.976 118.82C186.368 118.82 185.12 119.384 184.232 120.512C183.344 121.64 182.84 123.14 182.72 125.012H191.972ZM208.227 137.36C206.499 137.36 204.927 136.964 203.511 136.172C202.095 135.356 200.967 134.216 200.127 132.752C199.311 131.264 198.903 129.572 198.903 127.676C198.903 125.684 199.335 123.956 200.199 122.492C201.087 121.028 202.239 119.924 203.655 119.18C205.071 118.412 206.595 118.028 208.227 118.028C209.595 118.028 210.843 118.268 211.971 118.748C213.099 119.204 213.987 119.852 214.635 120.692C215.307 121.532 215.643 122.48 215.643 123.536C215.643 124.328 215.439 124.94 215.031 125.372C214.623 125.78 214.083 125.984 213.411 125.984C212.763 125.984 212.223 125.768 211.791 125.336C211.359 124.904 211.143 124.364 211.143 123.716C211.503 123.476 211.755 123.212 211.899 122.924C212.043 122.636 212.115 122.276 212.115 121.844C212.115 120.956 211.755 120.236 211.035 119.684C210.339 119.108 209.403 118.82 208.227 118.82C206.499 118.82 205.167 119.444 204.231 120.692C203.319 121.916 202.863 123.644 202.863 125.876V129.476C202.863 131.612 203.307 133.328 204.195 134.624C205.107 135.92 206.451 136.568 208.227 136.568C209.859 136.568 211.275 136.112 212.475 135.2C213.699 134.264 214.455 133.04 214.743 131.528H215.571C215.235 133.304 214.395 134.72 213.051 135.776C211.731 136.832 210.123 137.36 208.227 137.36ZM223.428 137.36C221.892 137.36 220.632 136.964 219.648 136.172C218.664 135.356 218.172 134.156 218.172 132.572C218.172 130.316 219.12 128.72 221.016 127.784C222.912 126.824 225.108 126.344 227.604 126.344H230.016V123.572C230.016 122.324 229.872 121.364 229.584 120.692C229.32 119.996 228.9 119.516 228.324 119.252C227.748 118.964 226.968 118.82 225.984 118.82C224.856 118.82 224.016 119.048 223.464 119.504C222.912 119.936 222.636 120.524 222.636 121.268C222.636 121.964 222.972 122.42 223.644 122.636C223.644 123.236 223.416 123.764 222.96 124.22C222.504 124.676 221.964 124.904 221.34 124.904C220.668 124.904 220.128 124.724 219.72 124.364C219.312 123.98 219.108 123.404 219.108 122.636C219.108 121.244 219.804 120.128 221.196 119.288C222.588 118.448 224.328 118.028 226.416 118.028C231.216 118.028 233.616 120.116 233.616 124.292V134.588C233.616 135.116 233.724 135.524 233.94 135.812C234.18 136.076 234.516 136.208 234.948 136.208C235.356 136.208 235.68 136.076 235.92 135.812C236.16 135.524 236.28 135.14 236.28 134.66H237.036C237.036 135.5 236.76 136.16 236.208 136.64C235.68 137.12 234.936 137.36 233.976 137.36C232.872 137.36 231.936 137.048 231.168 136.424C230.424 135.776 230.04 134.78 230.016 133.436C229.44 134.66 228.552 135.62 227.352 136.316C226.176 137.012 224.868 137.36 223.428 137.36ZM225.408 135.776C226.056 135.776 226.716 135.584 227.388 135.2C228.084 134.816 228.672 134.264 229.152 133.544C229.632 132.8 229.92 131.912 230.016 130.88V127.136H227.604C225.636 127.136 224.16 127.58 223.176 128.468C222.216 129.332 221.736 130.556 221.736 132.14C221.736 133.46 222.048 134.396 222.672 134.948C223.296 135.5 224.208 135.776 225.408 135.776ZM25.791 186.36L15.063 158.496V183.804L18.519 185.244V186H10.815V185.244L14.199 183.804V158.496L10.887 157.992V157.2H18.843L27.879 180.312L37.095 157.2H44.367V157.992L41.055 158.496V184.704L44.367 185.244V186H33.783V185.244L37.095 184.704V159.576L26.439 186.36H25.791ZM52.7089 186.36C51.1729 186.36 49.9129 185.964 48.9289 185.172C47.9449 184.356 47.4529 183.156 47.4529 181.572C47.4529 179.316 48.4009 177.72 50.2969 176.784C52.1929 175.824 54.3889 175.344 56.8849 175.344H59.2969V172.572C59.2969 171.324 59.1529 170.364 58.8649 169.692C58.6009 168.996 58.1809 168.516 57.6049 168.252C57.0289 167.964 56.2489 167.82 55.2649 167.82C54.1369 167.82 53.2969 168.048 52.7449 168.504C52.1929 168.936 51.9169 169.524 51.9169 170.268C51.9169 170.964 52.2529 171.42 52.9249 171.636C52.9249 172.236 52.6969 172.764 52.2409 173.22C51.7849 173.676 51.2449 173.904 50.6209 173.904C49.9489 173.904 49.4089 173.724 49.0009 173.364C48.5929 172.98 48.3889 172.404 48.3889 171.636C48.3889 170.244 49.0849 169.128 50.4769 168.288C51.8689 167.448 53.6089 167.028 55.6969 167.028C60.4969 167.028 62.8969 169.116 62.8969 173.292V183.588C62.8969 184.116 63.0049 184.524 63.2209 184.812C63.4609 185.076 63.7969 185.208 64.2289 185.208C64.6369 185.208 64.9609 185.076 65.2009 184.812C65.4409 184.524 65.5609 184.14 65.5609 183.66H66.3169C66.3169 184.5 66.0409 185.16 65.4889 185.64C64.9609 186.12 64.2169 186.36 63.2569 186.36C62.1529 186.36 61.2169 186.048 60.4489 185.424C59.7049 184.776 59.3209 183.78 59.2969 182.436C58.7209 183.66 57.8329 184.62 56.6329 185.316C55.4569 186.012 54.1489 186.36 52.7089 186.36ZM54.6889 184.776C55.3369 184.776 55.9969 184.584 56.6689 184.2C57.3649 183.816 57.9529 183.264 58.4329 182.544C58.9129 181.8 59.2009 180.912 59.2969 179.88V176.136H56.8849C54.9169 176.136 53.4409 176.58 52.4569 177.468C51.4969 178.332 51.0169 179.556 51.0169 181.14C51.0169 182.46 51.3289 183.396 51.9529 183.948C52.5769 184.5 53.4889 184.776 54.6889 184.776ZM54.0769 165.012L56.7409 159.324C56.8609 159.036 57.0649 158.796 57.3529 158.604C57.6409 158.412 57.9529 158.316 58.2889 158.316C58.7449 158.316 59.1409 158.484 59.4769 158.82C59.8129 159.156 59.9809 159.552 59.9809 160.008C59.9809 160.56 59.7769 160.98 59.3689 161.268L54.6529 165.444L54.0769 165.012ZM66.8431 185.28L69.3631 184.92V168.432L66.8431 168.072V167.352H72.9631V170.124C74.4751 168.06 76.1791 167.028 78.0751 167.028C78.9871 167.028 79.7911 167.268 80.4871 167.748C81.1831 168.204 81.5311 168.864 81.5311 169.728C81.5311 170.352 81.3271 170.88 80.9191 171.312C80.5111 171.72 79.9711 171.924 79.2991 171.924C78.5311 171.924 77.9071 171.624 77.4271 171.024C77.6911 170.688 77.8231 170.328 77.8231 169.944C77.8231 169.536 77.6791 169.212 77.3911 168.972C77.1271 168.708 76.7671 168.576 76.3111 168.576C75.8071 168.576 75.2911 168.816 74.7631 169.296C74.2351 169.752 73.6351 170.472 72.9631 171.456V184.92L75.8431 185.28V186H66.8431V185.28ZM86.6209 163.176C85.9489 163.176 85.3729 162.948 84.8929 162.492C84.4129 162.012 84.1729 161.436 84.1729 160.764C84.1729 160.092 84.4009 159.528 84.8569 159.072C85.3369 158.616 85.9249 158.388 86.6209 158.388C87.2689 158.388 87.8209 158.616 88.2769 159.072C88.7329 159.528 88.9609 160.092 88.9609 160.764C88.9609 161.436 88.7329 162.012 88.2769 162.492C87.8209 162.948 87.2689 163.176 86.6209 163.176ZM82.8049 186V185.28L85.3249 184.92V168.468L82.8049 168.108V167.388H88.9249V184.92L91.4449 185.28V186H82.8049ZM103.075 186.36C101.347 186.36 99.7751 185.964 98.3591 185.172C96.9431 184.356 95.8151 183.216 94.9751 181.752C94.1591 180.264 93.7511 178.572 93.7511 176.676C93.7511 174.78 94.1591 173.1 94.9751 171.636C95.8151 170.172 96.9431 169.044 98.3591 168.252C99.7751 167.436 101.347 167.028 103.075 167.028C104.803 167.028 106.375 167.436 107.791 168.252C109.207 169.044 110.323 170.172 111.139 171.636C111.979 173.1 112.399 174.78 112.399 176.676C112.399 178.572 111.979 180.264 111.139 181.752C110.323 183.216 109.207 184.356 107.791 185.172C106.375 185.964 104.803 186.36 103.075 186.36ZM103.075 185.568C104.851 185.568 106.183 184.92 107.071 183.624C107.983 182.328 108.439 180.612 108.439 178.476V174.876C108.439 172.74 107.983 171.036 107.071 169.764C106.183 168.468 104.851 167.82 103.075 167.82C101.299 167.82 99.9551 168.468 99.0431 169.764C98.1551 171.036 97.7111 172.74 97.7111 174.876V178.476C97.7111 180.612 98.1551 182.328 99.0431 183.624C99.9551 184.92 101.299 185.568 103.075 185.568ZM135.395 186.72C133.163 186.72 130.967 186.084 128.807 184.812L125.747 186.36H124.955V177.108H125.747L128.843 183.804C130.835 185.22 133.115 185.928 135.683 185.928C137.795 185.928 139.535 185.376 140.903 184.272C142.295 183.144 142.991 181.572 142.991 179.556C142.991 178.092 142.547 176.94 141.659 176.1C140.771 175.236 139.331 174.552 137.339 174.048L131.363 172.5C129.275 171.948 127.703 171.012 126.647 169.692C125.591 168.348 125.063 166.764 125.063 164.94C125.063 163.284 125.387 161.82 126.035 160.548C126.707 159.252 127.679 158.256 128.951 157.56C130.223 156.84 131.735 156.48 133.487 156.48C135.671 156.48 137.627 156.852 139.355 157.596L141.983 156.48H142.775V163.824H141.983L139.391 158.568C137.591 157.704 135.635 157.272 133.523 157.272C131.435 157.272 129.791 157.812 128.591 158.892C127.391 159.948 126.791 161.352 126.791 163.104C126.791 164.4 127.211 165.42 128.051 166.164C128.915 166.908 130.175 167.496 131.831 167.928L138.275 169.62C140.363 170.148 141.911 171.06 142.919 172.356C143.951 173.628 144.467 175.572 144.467 178.188C144.467 180.852 143.639 182.94 141.983 184.452C140.351 185.964 138.155 186.72 135.395 186.72ZM147.276 185.28L149.796 184.92V158.28L147.276 157.92V157.2H153.396V171.24C154.284 169.944 155.328 168.924 156.528 168.18C157.728 167.412 159.024 167.028 160.416 167.028C162.144 167.028 163.5 167.46 164.484 168.324C165.492 169.188 165.996 170.472 165.996 172.176V184.92L168.516 185.28V186H160.236V185.28L162.396 184.92V172.248C162.396 171 162.144 170.04 161.64 169.368C161.136 168.672 160.356 168.324 159.3 168.324C158.196 168.324 157.128 168.732 156.096 169.548C155.088 170.34 154.188 171.324 153.396 172.5V184.92L155.556 185.28V186H147.276V185.28ZM180.212 186.36C178.436 186.36 176.828 185.964 175.388 185.172C173.948 184.356 172.808 183.216 171.968 181.752C171.128 180.288 170.708 178.596 170.708 176.676C170.708 174.756 171.116 173.076 171.932 171.636C172.772 170.172 173.888 169.044 175.28 168.252C176.696 167.436 178.268 167.028 179.996 167.028C181.508 167.028 182.864 167.364 184.064 168.036C185.264 168.708 186.2 169.644 186.872 170.844C187.544 172.02 187.892 173.376 187.916 174.912H174.668V178.476C174.668 180.588 175.136 182.304 176.072 183.624C177.032 184.92 178.412 185.568 180.212 185.568C181.868 185.568 183.332 185.1 184.604 184.164C185.876 183.228 186.656 182.016 186.944 180.528H187.772C187.436 182.304 186.584 183.72 185.216 184.776C183.848 185.832 182.18 186.36 180.212 186.36ZM183.956 174.012C183.956 171.924 183.632 170.376 182.984 169.368C182.336 168.336 181.328 167.82 179.96 167.82C178.352 167.82 177.104 168.384 176.216 169.512C175.328 170.64 174.824 172.14 174.704 174.012H183.956ZM190.312 185.28L192.832 184.92V168.432L190.312 168.072V167.352H196.432V171.24C197.32 169.944 198.364 168.924 199.564 168.18C200.764 167.412 202.06 167.028 203.452 167.028C205.18 167.028 206.536 167.46 207.52 168.324C208.528 169.188 209.032 170.472 209.032 172.176V184.92L211.552 185.28V186H203.272V185.28L205.432 184.92V172.248C205.432 171 205.18 170.04 204.676 169.368C204.172 168.672 203.392 168.324 202.336 168.324C201.232 168.324 200.164 168.732 199.132 169.548C198.124 170.34 197.224 171.324 196.432 172.5V184.92L198.592 185.28V186H190.312V185.28ZM225.115 186.36C223.699 186.36 222.475 186 221.443 185.28C220.435 184.536 219.631 183.528 219.031 182.256V186H212.911V185.28L215.431 184.92V158.28L212.911 157.92V157.2H219.031V171.132C219.631 169.86 220.435 168.864 221.443 168.144C222.475 167.4 223.699 167.028 225.115 167.028C226.819 167.028 228.319 167.424 229.615 168.216C230.911 169.008 231.919 170.136 232.639 171.6C233.359 173.04 233.719 174.732 233.719 176.676C233.719 178.62 233.359 180.324 232.639 181.788C231.919 183.228 230.911 184.356 229.615 185.172C228.319 185.964 226.819 186.36 225.115 186.36ZM224.755 185.46C228.091 185.46 229.759 183.132 229.759 178.476V174.876C229.759 170.244 228.091 167.928 224.755 167.928C223.699 167.928 222.739 168.24 221.875 168.864C221.011 169.464 220.327 170.28 219.823 171.312C219.319 172.32 219.055 173.424 219.031 174.624V178.476C219.031 179.7 219.271 180.852 219.751 181.932C220.255 183.012 220.939 183.876 221.803 184.524C222.691 185.148 223.675 185.46 224.755 185.46ZM246.306 186.36C244.53 186.36 242.922 185.964 241.482 185.172C240.042 184.356 238.902 183.216 238.062 181.752C237.222 180.288 236.802 178.596 236.802 176.676C236.802 174.756 237.21 173.076 238.026 171.636C238.866 170.172 239.982 169.044 241.374 168.252C242.79 167.436 244.362 167.028 246.09 167.028C247.602 167.028 248.958 167.364 250.158 168.036C251.358 168.708 252.294 169.644 252.966 170.844C253.638 172.02 253.986 173.376 254.01 174.912H240.762V178.476C240.762 180.588 241.23 182.304 242.166 183.624C243.126 184.92 244.506 185.568 246.306 185.568C247.962 185.568 249.426 185.1 250.698 184.164C251.97 183.228 252.75 182.016 253.038 180.528H253.866C253.53 182.304 252.678 183.72 251.31 184.776C249.942 185.832 248.274 186.36 246.306 186.36ZM250.05 174.012C250.05 171.924 249.726 170.376 249.078 169.368C248.43 168.336 247.422 167.82 246.054 167.82C244.446 167.82 243.198 168.384 242.31 169.512C241.422 170.64 240.918 172.14 240.798 174.012H250.05ZM256.406 185.28L258.926 184.92V168.432L256.406 168.072V167.352H262.526V170.124C264.038 168.06 265.742 167.028 267.638 167.028C268.55 167.028 269.354 167.268 270.05 167.748C270.746 168.204 271.094 168.864 271.094 169.728C271.094 170.352 270.89 170.88 270.482 171.312C270.074 171.72 269.534 171.924 268.862 171.924C268.094 171.924 267.47 171.624 266.99 171.024C267.254 170.688 267.386 170.328 267.386 169.944C267.386 169.536 267.242 169.212 266.954 168.972C266.69 168.708 266.33 168.576 265.874 168.576C265.37 168.576 264.854 168.816 264.326 169.296C263.798 169.752 263.198 170.472 262.526 171.456V184.92L265.406 185.28V186H256.406V185.28ZM290.799 165.66C290.799 166.596 290.451 167.4 289.755 168.072C289.059 168.744 287.955 169.176 286.443 169.368C287.067 170.28 287.379 171.528 287.379 173.112C287.379 174.984 286.707 176.46 285.363 177.54C284.043 178.62 282.363 179.16 280.323 179.16C279.483 179.16 278.715 179.088 278.019 178.944C276.483 179.04 275.715 179.64 275.715 180.744C275.715 181.368 275.967 181.824 276.471 182.112C276.999 182.4 277.827 182.544 278.955 182.544H282.987C284.931 182.544 286.371 182.94 287.307 183.732C288.267 184.524 288.747 185.88 288.747 187.8C288.747 189.144 288.399 190.38 287.703 191.508C287.031 192.636 286.047 193.524 284.751 194.172C283.455 194.844 281.907 195.18 280.107 195.18C277.395 195.18 275.391 194.772 274.095 193.956C272.823 193.14 272.187 192.06 272.187 190.716C272.187 189.9 272.499 189.18 273.123 188.556C273.747 187.932 274.599 187.62 275.679 187.62C275.895 187.62 276.339 187.668 277.011 187.764C276.267 188.556 275.895 189.492 275.895 190.572C275.895 191.604 276.255 192.504 276.975 193.272C277.695 194.04 278.871 194.424 280.503 194.424C281.919 194.424 283.179 194.148 284.283 193.596C285.411 193.068 286.275 192.372 286.875 191.508C287.475 190.644 287.775 189.756 287.775 188.844C287.775 187.836 287.451 187.104 286.803 186.648C286.155 186.216 285.003 186 283.347 186H278.955C277.275 186 276.003 185.676 275.139 185.028C274.299 184.356 273.879 183.372 273.879 182.076C273.879 181.212 274.119 180.456 274.599 179.808C275.103 179.136 275.739 178.704 276.507 178.512C274.419 177.624 273.375 175.824 273.375 173.112C273.375 171.216 274.035 169.728 275.355 168.648C276.675 167.568 278.331 167.028 280.323 167.028C282.843 167.028 284.667 167.556 285.795 168.612C286.467 168.492 286.971 168.276 287.307 167.964C287.643 167.628 287.811 167.256 287.811 166.848C287.811 166.464 287.703 166.176 287.487 165.984C287.271 165.768 287.019 165.66 286.731 165.66C286.731 165.132 286.923 164.676 287.307 164.292C287.715 163.884 288.195 163.68 288.747 163.68C289.347 163.68 289.839 163.86 290.223 164.22C290.607 164.58 290.799 165.06 290.799 165.66ZM283.995 172.212C283.995 170.748 283.683 169.62 283.059 168.828C282.459 168.036 281.547 167.64 280.323 167.64C277.947 167.64 276.759 169.164 276.759 172.212V173.976C276.759 175.392 277.047 176.508 277.623 177.324C278.223 178.14 279.123 178.548 280.323 178.548C281.547 178.548 282.459 178.14 283.059 177.324C283.683 176.508 283.995 175.392 283.995 173.976V172.212Z" fill="#CE6532"/>
</svg>
